HIERARCHY
ROOT Hips
{
	OFFSET 0.000000 0.000000 0.000000
	CHANNELS 6 Xposition Yposition Zposition Zrotation Yrotation Xrotation 
	JOINT LHipJoint
	{
		OFFSET 0.000000 0.000000 0.000000
		CHANNELS 3 Zrotation Yrotation Xrotation
		JOINT LeftUpLeg
		{
			OFFSET 1.363060 -1.794630 0.839290
			CHANNELS 3 Zrotation Yrotation Xrotation
			JOINT LeftLeg
			{
				OFFSET 2.448110 -6.726130 0.000000
				CHANNELS 3 Zrotation Yrotation Xrotation
				JOINT LeftFoot
				{
					OFFSET 2.562200 -7.039590 0.000000
					CHANNELS 3 Zrotation Yrotation Xrotation
					JOINT LeftToeBase
					{
						OFFSET 0.157640 -0.433110 2.322550
						CHANNELS 3 Zrotation Yrotation Xrotation
						End Site
						{
							OFFSET 0.000000 0.000000 0.000000
						}
					}
				}
			}
		}
	}
	JOINT RHipJoint
	{
		OFFSET 0.000000 0.000000 0.000000
		CHANNELS 3 Zrotation Yrotation Xrotation
		JOINT RightUpLeg
		{
			OFFSET -1.305520 -1.794630 0.839290
			CHANNELS 3 Zrotation Yrotation Xrotation
			JOINT RightLeg
			{
				OFFSET -2.542530 -6.985550 0.000000
				CHANNELS 3 Zrotation Yrotation Xrotation
				JOINT RightFoot
				{
					OFFSET -2.568260 -7.056230 0.000000
					CHANNELS 3 Zrotation Yrotation Xrotation
					JOINT RightToeBase
					{
						OFFSET -0.164730 -0.452590 2.363150
						CHANNELS 3 Zrotation Yrotation Xrotation
						End Site
						{
							OFFSET 0.000000 0.000000 0.000000
						}
					}
				}
			}
		}
	}
	JOINT LowerBack
	{
		OFFSET 0.000000 0.000000 0.000000
		CHANNELS 3 Zrotation Yrotation Xrotation
		JOINT Spine
		{
			OFFSET 0.028270 2.035590 -0.193380
			CHANNELS 3 Zrotation Yrotation Xrotation
			JOINT Spine1
			{
				OFFSET 0.056720 2.048850 -0.042750
				CHANNELS 3 Zrotation Yrotation Xrotation
				JOINT Neck
				{
					OFFSET 0.000000 0.000000 0.000000
					CHANNELS 3 Zrotation Yrotation Xrotation
					JOINT Neck1
					{
						OFFSET -0.054170 1.746240 0.172020
						CHANNELS 3 Zrotation Yrotation Xrotation
						JOINT Head
						{
							OFFSET 0.104070 1.761360 -0.123970
							CHANNELS 3 Zrotation Yrotation Xrotation
							End Site
							{
								OFFSET 0.000000 0.000000 0.000000
							}
						}
					}
				}
				JOINT LeftShoulder
				{
					OFFSET 0.000000 0.000000 0.000000
					CHANNELS 3 Zrotation Yrotation Xrotation
					JOINT LeftArm
					{
						OFFSET 3.362410 1.200890 -0.311210
						CHANNELS 3 Zrotation Yrotation Xrotation
						JOINT LeftForeArm
						{
							OFFSET 4.983000 -0.000000 -0.000000
							CHANNELS 3 Zrotation Yrotation Xrotation
							JOINT LeftHand
							{
								OFFSET 3.483560 -0.000000 -0.000000
								CHANNELS 3 Zrotation Yrotation Xrotation
								JOINT LeftFingerBase
								{
									OFFSET 0.000000 0.000000 0.000000
									CHANNELS 3 Zrotation Yrotation Xrotation
									JOINT LeftHandIndex1
									{
										OFFSET 0.715260 -0.000000 -0.000000
										CHANNELS 3 Zrotation Yrotation Xrotation
										End Site
										{
											OFFSET 0.000000 0.000000 0.000000
										}
									}
								}
								JOINT LThumb
								{
									OFFSET 0.000000 0.000000 0.000000
									CHANNELS 3 Zrotation Yrotation Xrotation
									End Site
									{
										OFFSET 0.000000 0.000000 0.000000
									}
								}
							}
						}
					}
				}
				JOINT RightShoulder
				{
					OFFSET 0.000000 0.000000 0.000000
					CHANNELS 3 Zrotation Yrotation Xrotation
					JOINT RightArm
					{
						OFFSET -3.136600 1.374050 -0.404650
						CHANNELS 3 Zrotation Yrotation Xrotation
						JOINT RightForeArm
						{
							OFFSET -5.241900 -0.000000 -0.000000
							CHANNELS 3 Zrotation Yrotation Xrotation
							JOINT RightHand
							{
								OFFSET -3.444170 -0.000000 -0.000000
								CHANNELS 3 Zrotation Yrotation Xrotation
								JOINT RightFingerBase
								{
									OFFSET 0.000000 0.000000 0.000000
									CHANNELS 3 Zrotation Yrotation Xrotation
									JOINT RightHandIndex1
									{
										OFFSET -0.622530 -0.000000 -0.000000
										CHANNELS 3 Zrotation Yrotation Xrotation
										End Site
										{
											OFFSET 0.000000 0.000000 0.000000
										}
									}
								}
								JOINT RThumb
								{
									OFFSET 0.000000 0.000000 0.000000
									CHANNELS 3 Zrotation Yrotation Xrotation
									End Site
									{
										OFFSET 0.000000 0.000000 0.000000
									}
								}
							}
						}
					}
				}
			}
		}
	}
}
MOTION
Frames: 12
Frame Time: 0.008333
0.334844 17.759398 -14.926243 -2.715947 0.041981 7.573706 -2.031102 -0.767972 0.400475 -11.962743 3.112105 -21.825601 0.405760 8.676919 23.806042 -0.337110 3.452613 -0.050411 0.000000 0.014400 0.039500 0.081633 0.447239 -0.214474 18.933323 2.701492 -20.126939 -0.857171 -9.038594 25.156034 -0.040717 -1.666479 -3.363446 -0.344900 -3.773800 10.441100 1.990785 -0.519024 2.593154 1.631873 -0.547925 -1.709534 1.565078 -0.688808 6.934149 -3.311287 -0.725899 -9.115493 2.804739 -0.230009 33.728410 0.515200 0.391900 13.596100 9.451059 4.938360 0.265453 -96.887055 -16.436296 35.015985 8.257624 -18.143153 -1.493432 -0.294788 -0.603715 -5.541296 23.335503 -6.019379 -2.356000 -7.125000 0.000000 0.000000 -2.233400 24.108100 1.127200 -8.275407 -3.865651 -0.076748 93.099246 14.120370 19.986771 -11.613922 23.967308 -2.986589 0.893596 1.039682 27.159008 -20.852428 -24.160402 9.480500 7.125000 0.000000 0.000000 9.428800 -56.852100 -2.755500 
0.338010 17.755824 -14.928183 -2.734124 0.051886 7.574592 -2.023011 -0.772482 0.391866 -11.959439 3.100699 -21.884657 0.424930 8.715573 23.918596 -0.337681 3.452402 -0.107708 -0.000000 -0.012400 -0.034000 0.075027 0.449446 -0.216340 18.945123 2.700236 -20.177248 -0.872366 -9.068551 25.244238 -0.044438 -1.653318 -3.422423 -0.340400 -3.749100 10.371900 2.019415 -0.518830 2.619416 1.633576 -0.547006 -1.707075 1.560397 -0.686422 6.933656 -3.329027 -0.725390 -9.122871 2.825771 -0.233131 33.689065 0.528000 0.389200 13.579100 9.449970 4.937971 0.265622 -96.801720 -16.360034 35.366857 8.335460 -18.287877 -1.518334 -0.281735 -0.617499 -5.803392 23.502595 -5.351336 -2.074000 -7.125000 0.000000 0.000000 -2.108200 24.844300 1.028000 -8.277556 -3.864897 -0.078593 93.106107 14.190431 20.153116 -11.628366 23.986156 -2.991717 0.888786 1.046725 26.935286 -20.791868 -24.271757 9.488900 7.125000 0.000000 0.000000 9.549000 -56.954900 -2.814900 
0.340461 17.752454 -14.929817 -2.736774 0.057714 7.566026 -2.015545 -0.776454 0.384630 -11.967971 3.092823 -21.945451 0.446381 8.758945 24.045286 -0.335325 3.440041 -0.171769 -0.000000 -0.002300 -0.006300 0.068072 0.451190 -0.216968 18.945013 2.692919 -20.223273 -0.887459 -9.097328 25.330656 -0.048878 -1.634318 -3.459125 -0.343200 -3.764400 10.414800 2.016022 -0.523037 2.658512 1.638161 -0.551124 -1.709460 1.580859 -0.689542 6.907312 -3.331622 -0.725961 -9.105235 2.803939 -0.224678 33.658561 0.517800 0.390300 13.562100 9.451447 4.936295 0.265387 -96.766283 -16.301176 35.549445 8.359568 -18.336541 -1.522895 -0.276876 -0.625613 -5.900365 23.763526 -4.964359 -1.922900 -7.125000 0.000000 0.000000 -1.911100 25.267000 0.913000 -8.275834 -3.861147 -0.080167 93.095385 14.225294 20.311402 -11.641112 24.000575 -2.995293 0.887680 1.051023 26.781712 -20.802178 -24.344255 9.519600 7.125000 0.000000 0.000000 9.572700 -57.033400 -2.840200 
0.343013 17.747858 -14.931860 -2.775967 0.041437 7.559977 -2.004997 -0.779939 0.375969 -11.940974 3.110067 -22.015223 0.469169 8.802371 24.173020 -0.333039 3.429045 -0.220922 -0.000000 0.001700 0.004700 0.060259 0.453948 -0.220145 18.981711 2.736180 -20.260791 -0.902630 -9.128115 25.419909 -0.046997 -1.646438 -3.500588 -0.334100 -3.714500 10.274900 2.053337 -0.521016 2.696907 1.642175 -0.546604 -1.703657 1.579661 -0.686327 6.915593 -3.338590 -0.725297 -9.145385 2.822301 -0.226562 33.624224 0.527400 0.389300 13.558700 9.450214 4.933482 0.264118 -96.682336 -16.302030 35.965096 8.386597 -18.391542 -1.527256 -0.271526 -0.635194 -6.333239 24.048320 -4.635713 -1.796100 -7.125000 0.000000 0.000000 -1.693300 25.626700 0.794700 -8.275579 -3.857902 -0.082855 93.076136 14.311380 20.569645 -11.661758 24.029691 -3.003122 0.887123 1.052071 26.620784 -20.844987 -24.341209 9.540500 7.125000 0.000000 0.000000 9.522500 -57.039600 -2.826500 
0.345464 17.743569 -14.934311 -2.799572 0.036741 7.555740 -1.995091 -0.784271 0.366966 -11.929769 3.114231 -22.087893 0.492525 8.847725 24.306039 -0.330626 3.417074 -0.279664 0.000000 -0.003700 -0.010200 0.052508 0.456707 -0.222507 19.001888 2.762279 -20.308376 -0.918875 -9.160364 25.514149 -0.047173 -1.648919 -3.545693 -0.328500 -3.683600 10.188100 2.075096 -0.521475 2.736630 1.645764 -0.545495 -1.701274 1.584308 -0.685294 6.908472 -3.347220 -0.726301 -9.156667 2.832806 -0.229338 33.585344 0.532800 0.387200 13.544700 9.449759 4.930117 0.263068 -96.608872 -16.285320 36.341991 8.418355 -18.453638 -1.532833 -0.266820 -0.644337 -6.698133 24.364208 -4.309007 -1.668500 -7.125000 0.000000 0.000000 -1.451200 25.985100 0.668900 -8.275592 -3.854197 -0.085061 93.058031 14.380641 20.800517 -11.684920 24.061500 -3.011934 0.886116 1.053793 26.452876 -20.876731 -24.350388 9.560200 7.125000 0.000000 0.000000 9.490500 -57.056300 -2.820700 
0.347915 17.738974 -14.937374 -2.823318 0.029378 7.553742 -1.984314 -0.789269 0.357012 -11.919123 3.119498 -22.170383 0.517536 8.896277 24.448461 -0.328048 3.404213 -0.340235 -0.000000 -0.012100 -0.033400 0.044221 0.460031 -0.225181 19.021328 2.797033 -20.362840 -0.936440 -9.195188 25.615733 -0.046900 -1.653843 -3.591409 -0.322800 -3.652100 10.099900 2.096798 -0.521741 2.780056 1.649180 -0.543925 -1.699221 1.588008 -0.683937 6.898689 -3.354843 -0.728000 -9.168207 2.845102 -0.233981 33.544936 0.538400 0.384500 13.530700 9.449417 4.925725 0.261464 -96.528844 -16.280456 36.767611 8.451511 -18.517191 -1.537897 -0.263917 -0.652768 -7.127817 24.733884 -4.071261 -1.582300 -7.125000 0.000000 0.000000 -1.166100 26.244500 0.530400 -8.275969 -3.849649 -0.087639 93.033090 14.451626 21.054250 -11.719176 24.109613 -3.026022 0.884591 1.055041 26.283094 -20.900090 -24.346866 9.571100 7.125000 0.000000 0.000000 9.461400 -57.057400 -2.812200 
0.350570 17.734175 -14.941152 -2.842678 0.019100 7.553928 -1.973168 -0.794873 0.346572 -11.914893 3.126069 -22.258839 0.543014 8.945802 24.593878 -0.324934 3.389183 -0.402058 0.000000 -0.021700 -0.059700 0.035558 0.463912 -0.228294 19.034170 2.836666 -20.426571 -0.955820 -9.233692 25.727779 -0.047053 -1.656978 -3.639281 -0.317300 -3.621100 10.013100 2.115895 -0.520764 2.827569 1.651512 -0.540474 -1.697376 1.589477 -0.681438 6.886516 -3.362372 -0.730012 -9.181704 2.861101 -0.240830 33.502830 0.545500 0.381300 13.517100 9.449223 4.920272 0.259246 -96.439095 -16.286682 37.243379 8.496342 -18.599603 -1.546687 -0.261645 -0.660556 -7.633327 25.113787 -3.906768 -1.528300 -7.125000 0.000000 0.000000 -0.872000 26.423200 0.392900 -8.277276 -3.844302 -0.090736 93.001411 14.526504 21.325503 -11.767320 24.178080 -3.046687 0.882029 1.056080 26.109941 -20.902318 -24.336235 9.568600 7.125000 0.000000 0.000000 9.452000 -57.045800 -2.806700 
0.353225 17.729069 -14.945543 -2.855481 0.005327 7.555627 -1.961542 -0.801124 0.335633 -11.919265 3.135590 -22.355211 0.569811 8.997535 24.746230 -0.321029 3.371124 -0.465853 0.000000 -0.033000 -0.090800 0.026406 0.468319 -0.231734 19.038622 2.880249 -20.499641 -0.977157 -9.276106 25.851054 -0.047867 -1.657379 -3.689673 -0.312700 -3.594800 9.939400 2.128778 -0.518315 2.880989 1.652927 -0.534802 -1.696160 1.590982 -0.678011 6.869514 -3.367133 -0.733167 -9.197811 2.874663 -0.248780 33.463314 0.550800 0.377700 13.506700 9.449794 4.913958 0.256324 -96.342553 -16.301727 37.743785 8.558515 -18.709475 -1.562181 -0.259477 -0.667220 -8.179335 25.461502 -3.814599 -1.505200 -7.125000 0.000000 0.000000 -0.602200 26.521600 0.270000 -8.279343 -3.837844 -0.094551 92.963016 14.602743 21.609026 -11.832237 24.270651 -3.075316 0.878233 1.057164 25.930729 -20.879045 -24.323853 9.552600 7.125000 0.000000 0.000000 9.469700 -57.026100 -2.807500 
0.355982 17.723759 -14.950445 -2.862335 -0.011888 7.558516 -1.949346 -0.807886 0.324341 -11.931999 3.150615 -22.459064 0.597704 9.051469 24.905124 -0.315921 3.347686 -0.531824 0.000000 -0.040900 -0.112500 0.016738 0.473179 -0.235508 19.035942 2.924306 -20.582146 -1.000769 -9.322461 25.985987 -0.049663 -1.653411 -3.742300 -0.308400 -3.570500 9.871400 2.137669 -0.514312 2.940353 1.653317 -0.526607 -1.695360 1.591413 -0.673380 6.848629 -3.370790 -0.737543 -9.217583 2.887441 -0.258244 33.426067 0.555300 0.373500 13.499700 9.451067 4.906695 0.252803 -96.242391 -16.331044 38.236311 8.636617 -18.844115 -1.584656 -0.257113 -0.672290 -8.715715 25.734780 -3.788305 -1.509100 -7.125000 0.000000 0.000000 -0.390200 26.547200 0.174700 -8.282340 -3.830348 -0.099060 92.916984 14.680851 21.906222 -11.913156 24.386268 -3.111563 0.873711 1.057861 25.741404 -20.845939 -24.300519 9.527700 7.125000 0.000000 0.000000 9.492700 -56.992500 -2.806700 
0.358740 17.717938 -14.955959 -2.865513 -0.031514 7.562227 -1.936491 -0.815182 0.312561 -11.950760 3.170288 -22.571713 0.626966 9.107846 25.071776 -0.309477 3.319119 -0.598519 0.000100 -0.047300 -0.129900 0.006365 0.478525 -0.239584 19.028722 2.968500 -20.674782 -1.026474 -9.372868 26.132955 -0.052514 -1.644196 -3.797165 -0.305000 -3.550800 9.816200 2.143906 -0.508310 3.007480 1.653252 -0.515503 -1.695208 1.591918 -0.667337 6.822149 -3.369911 -0.743911 -9.240817 2.893869 -0.268803 33.391414 0.555900 0.368800 13.496500 9.453703 4.898585 0.248652 -96.140296 -16.372812 38.710956 8.736030 -19.012448 -1.616747 -0.253057 -0.676255 -9.201599 25.900914 -3.757784 -1.503900 -7.125000 0.000000 0.000000 -0.261500 26.579300 0.116900 -8.285893 -3.821459 -0.104389 92.863253 14.763157 22.213306 -12.010396 24.524581 -3.155580 0.868343 1.058150 25.533414 -20.802808 -24.261458 9.492200 7.125000 0.000000 0.000000 9.518700 -56.939700 -2.802300 
0.361497 17.711811 -14.961474 -2.864983 -0.053146 7.564644 -1.922826 -0.822610 0.300617 -11.974498 3.197440 -22.690097 0.657999 9.166986 25.246992 -0.301087 3.282260 -0.668512 0.000100 -0.051500 -0.141500 -0.004687 0.484090 -0.243960 19.018872 3.012170 -20.773446 -1.054562 -9.427362 26.292081 -0.055797 -1.633731 -3.855656 -0.300200 -3.523100 9.738700 2.146222 -0.501806 3.080664 1.652648 -0.503257 -1.694985 1.592966 -0.660901 6.792863 -3.370088 -0.752803 -9.264156 2.898117 -0.281799 33.356539 0.555400 0.362600 13.493900 9.457022 4.889573 0.244364 -96.039575 -16.431233 39.142668 8.846278 -19.196138 -1.654909 -0.248294 -0.678631 -9.579144 25.964375 -3.737140 -1.497300 -7.125000 0.000000 0.000000 -0.212900 26.601800 0.095000 -8.290210 -3.811721 -0.110063 92.804264 14.849423 22.531565 -12.119577 24.679626 -3.205738 0.863972 1.055248 25.311385 -20.803833 -24.140547 9.450700 7.125000 0.000000 0.000000 9.455600 -56.811000 -2.754000 
0.364254 17.705173 -14.967601 -2.863580 -0.076584 7.567067 -1.908310 -0.830441 0.288033 -12.000216 3.227797 -22.817054 0.690944 9.229323 25.431955 -0.291858 3.242444 -0.740325 0.000100 -0.055300 -0.151800 -0.016671 0.490084 -0.248664 19.008497 3.055553 -20.881593 -1.084957 -9.485877 26.463348 -0.060239 -1.617874 -3.917030 -0.295700 -3.496500 9.664300 2.147014 -0.495640 3.161430 1.652367 -0.491066 -1.694998 1.596166 -0.654745 6.758930 -3.370565 -0.762463 -9.283878 2.897143 -0.294291 33.316779 0.552300 0.356000 13.488400 9.461364 4.879302 0.239880 -95.944671 -16.507709 39.529348 8.964685 -19.390791 -1.697346 -0.243343 -0.679697 -9.822958 25.969603 -3.710614 -1.484300 -7.125000 0.000000 0.000000 -0.210000 26.631600 0.093600 -8.294920 -3.800657 -0.116044 92.737927 14.944086 22.861664 -12.240460 24.850497 -3.261763 0.859902 1.050435 25.069789 -20.827585 -23.966144 9.401900 7.125000 0.000000 0.000000 9.342000 -56.631000 -2.679800 
